<?xml version="1.0" encoding="UTF-8"?><svg id="Layer_2" xmlns="http://www.w3.org/2000/svg" viewBox="0 0 4683 1238.51"><defs><style>.cls-1{fill:#fff;}.cls-1,.cls-2,.cls-3{fill-rule:evenodd;}.cls-4,.cls-2{fill:#253d51;}.cls-5,.cls-3{fill:#acc851;}</style></defs><g id="Capa_1"><g><g><path class="cls-5" d="M3744.02,449.45c6.52-11.3,10.59-23.82,12.18-37.58,1.33-14.58-.14-27.31-4.34-38.61-20.99-54.15-108.68-47.23-136.79,0-6.69,11.3-10.77,24.03-12.46,38.61-1.25,13.76,.25,26.28,4.63,37.58,21.68,55.7,108.13,48.24,136.79,0"/><path class="cls-4" d="M1642.83,271.03c11.16,.18,22.79,.32,34.88,.53,17.65,.3,192.61,.64,209.17,.94,16.56,.32,30.97,.64,43.16,.78,12.46,.14,20.98,.34,25.79,.3,1.17,0,2.32-.04,3.47-.11,5.1,.07,8.96,.14,11.68,.11,11.43-.09,21.87-2.78,31.23-7.87,9.48-5.13,17.34-11.52,23.73-19.23,6.28-7.55,10.95-15.26,13.6-22.98,1.69-4.9,2.43-9.61,2.53-14.35,.11-4.72-.28-8.83-1.58-11.98-3.77-8.87-29.58-1.23-37.36,.8-4.21,1.07-9.66,1.71-16.41,1.87h-.44l-12.48-.14c-12.43-.16-26.88-.34-43.69-.48-16.84-.14-192.27-.46-210.61-.61-18.13-.14-208.89,.09-225.9-.5-146.64-4.93-283.56,2.69-358.43,91.16-84.55,99.92,23.83,242.51,85.13,260.24,16.81,4.88,43.02-.82,57.6-8.01,11.66-5.79,22.03-12.98,31.07-21.45,9.04-8.47,15.38-17,18.38-25.35,1.77-4.9,1.58-8.65-.56-11.2-.17-.21-19.95-6.07-35.52-22.96-106.03-115.12-72.6-179.21,62.57-185.24,59.84-2.64,133.75-1.73,170.3-1.73l-242.85,705.74c-8.24,23.93-16.81,41.51-26.22,52.62-9.6,11.32-28.98,18.76-42.82,14.81-2.98-.86-5.6-.89-7.81-.32-1.9,.54-3.85,2.71-5.13,6.62-1.46,4.59-.33,10.08,3.24,16.06,3.64,6.13,8.73,12.18,15.51,18.12,6.68,5.88,14.26,10.76,22.8,14.67,8.33,3.81,16.82,5.87,25.13,5.98,3,.04,6.03-.07,9.03-.43,2.05,.28,4.08,.43,6.12,.43,14.41,.21,28.74-3.77,42.42-11.64,13.65-7.87,26.74-20.37,38.77-37.53,12.03-17.16,23.03-39.52,32.53-67.08l247.98-720.62Zm2565.78,217c-7.74,.14-13.74,2.35-18.07,6.6-4.52,4.26-7.21,9.45-8.49,15.77-1.23,6.14-.77,12.43,1.28,18.59,1.78,6.3,5.47,11.5,10.59,15.75,5.32,4.26,12.04,6.45,20.53,6.61,.23,0,8.01,.32,23.36,.96,15.44,.46,37.69,.78,66.81,.94l-87.44,254.08c-4.45,6.59-9.33,13.46-14.53,20.51-8.63,11.68-13.67,17.94-24.05,28.34-21.52,21.11-96.22,53.79-83.54,7.12,1.19-4.7,2.33-8.01,3.15-10.4l67.31-195.67c4.02-11.04,6.05-22.06,6.85-33.25,.53-11.16-1.64-21.43-6.28-30.87-4.91-9.29-13.49-16.84-25.79-22.54-12.32-5.66-29.27-8.65-51.14-8.79-2.37,0-4.72,.07-7.05,.18-2.62-.11-5.32-.18-8.1-.18-21.54,.14-42.53,4.4-63.29,12.41-20.6,8.21-40.66,19.41-60.21,33.41-11.55,8.31-22.8,17.28-33.8,26.92l7.46-21.7c2.69-7.74,1.98-14.67-1.6-20.81-3.53-6.3-10.15-11.34-19.37-15.13-17.18-6.69-81.96-12-90.67,10.41-.71,2.05-1.08,4.4-1.01,6.77,.07,2.37-.14,5.5-.52,9.13-.36,3.61-1.6,8.51-3.61,14.35l-56.43,164.02c-3.31,3.6-6.53,7.83-9.67,12.74-6.48,10.54-14.28,21.75-22.95,33.54-8.63,11.68-18.34,22.72-28.7,33.11-31.05,30.41-91.93,38.92-75.76-8.05l82.62-240.08c2.67-7.74,1.97-14.67-1.6-20.81-3.54-6.3-10.15-11.34-19.37-15.13-16.82-6.53-58.37-8.21-76.35-1.25-7.62,2.97-12.41,6.76-14.31,11.66-.71,2.05-1.09,4.4-1.03,6.77,.09,2.37-.12,5.5-.5,9.13-.37,3.61-1.62,8.51-3.63,14.35l-56.45,164.05c-3.35,3.56-6.53,7.8-9.65,12.71-6.5,10.54-14.05,21.75-22.73,33.54-8.85,11.68-18.57,22.72-29.37,33.11-10.81,10.4-22.7,18.76-35.71,25.35-10.65,5.3-21.93,8.58-34.04,9.68-8.37-.85-15.01-3.13-19.7-6.98-6.3-4.77-9.9-10.89-11.14-18.62-1.09-7.69-.2-16.06,2.88-25.03,6.78-19.08,15.36-38.31,26.04-57.82,10.68-19.55,21.93-38.27,34.06-56.26,12.16-18.12,23.5-34.48,34.45-49.15,10.97-14.65,19.97-26.77,27.18-36.23,7.26-9.61,11.29-15.59,12.34-17.98,2.97-5.52,3.22-11.32,.52-17.48-2.55-5.98-6.68-11.8-12.32-17.16-5.61-5.35-11.54-9.77-17.63-13.08-6.34-3.31-11.43-5.04-15.52-5.2h-71.92c-3.31,0-6.89-.02-10.75-.16-5.22-.14-12.1-.48-20.72-.94-8.33-.61-19.71-1.42-33.5-2.67-.7-12.76-4.2-22.84-10.45-30.26-6.5-7.25-14.56-12.44-24.51-15.43-32.77-10.09-82.81-4.36-109.3,16.08-8.37,6.46-14.1,14.17-17.34,23-4.5,13.71-3.1,25.53,3.76,35.62,6.89,9.9,17.62,18.26,32.02,24.88-4.45,12.28-9.77,25.81-15.75,40.64-6.02,14.95-12.53,30.08-19.4,45.52-7.01,15.29-13.97,29.77-21.33,43.52-7.28,13.53-14.37,25.17-21.2,34.78-5.43,8.22-6.78,15.91-3.84,23.32,2.77,7.26,8.06,12.92,16.14,16.88,20.67,10.32,52.48,4.63,67.45-13.71,10.72-13.88,20.94-28.98,30.42-45.07,9.74-16.2,18.62-32.47,26.61-48.68,8.23-16.22,15.13-31.19,21.27-45.22,6.09-13.87,10.96-25.53,14.44-34.98h99.35c-34.96,40.5-64.03,77.83-87.26,112.18-23.02,34.36-39.84,66.65-50.42,96.74-6.89,20.65-8.69,37.99-5.39,51.98,3.33,13.89,10.29,24.92,20.65,33.11,10.56,8.15,23.02,13.99,37.63,17.48,14.76,3.63,29.75,5.34,45.59,5.2,2.05,0,4.1-.07,6.12-.14,2.97,.14,5.98,.18,9.03,.14,22.64-.14,43.88-3.31,63.96-9.29,20.1-6.16,38.7-14.35,56.04-24.57,3.94-2.39,7.8-4.77,11.59-7.26,4.52,11.86,12.99,21.47,25.51,28.8,32.31,19.01,100.72,13.1,134.53,3.03,17.75-5.45,34.36-12.46,49.95-21.08-.48,6.16-2.88,17.02,.18,20.86,13.85,17.45,75.73,15.1,95.03,2.88,6.68-4.1,11.55-9.29,14.52-15.45,3.29-6.3,5.61-12.43,7.5-18.59l47.49-138c9.13-18.9,21.67-37.52,37.9-55.96,16.15-18.26,33.54-34.96,52.34-50.08,18.53-14.97,36.08-27.09,52.78-36.1,12.39-6.75,22.96-11.09,31.67-12.89,4.1,1.14,6.96,3.31,8.49,6.45,2.26,4.88,2.69,11.34,1.16,19.55-1.66,8.03-4.1,17.02-7.75,26.95l-66.02,191.87c-5.59,16.2-6.28,31.05-2.12,44.43,4.17,13.39,12.99,24.1,26.67,32.11,32.33,19.01,100.92,13.1,134.74,3.03,20.1-6.16,38.72-14.35,56.29-24.57,2.03-1.21,4.04-2.46,6.01-3.7,23.43,49.95,123.96,41.01,166.71,28.27,20.12-6.16,38.72-14.35,56.29-24.57,17.38-10.43,33.43-21.93,48.1-34.68,14.55-12.92,27.83-25.99,39.56-39.7,11.69-13.57,22.11-26.63,30.82-39.24,1.32-1.89,2.24-3.31,2.63-4.41,.55-.96,.82-1.74,.96-2.21,1.92-6.12,1.55-12.14-1.03-17.98-2.54-5.98-6.8-10.86-12.46-14.77-24.62-16.31-42.76-13.49-59.17,10.43-19.1,27.84-86.75,87.4-99.21,93.1-9.7,5.27-19.88,8.54-30.48,9.65-9.79-1.1-16.79-4.45-21.18-9.97-5.45-7.12-8.54-7.26-3.61-22.25l103.12-299.65,36.64,.04h7.01c9.65,0,19.44,0,29.39-.04,25.67-.07,11.96-.41,41.67-.62,29.44-.23,62-.46,97.14-1.28,5.75-.11,11.73-2.64,17.53-6.92,5.93-4.36,11.34-9.74,16.33-16.22,4.93-6.45,8.72-12.93,12-19.53,3.24-6.64,4.97-12.3,5.41-17.04,.46-4.86-.87-7.73-4-8.81-2.49-.87-6.46,.05-11.89,2.79-.68-1.35-1.76-2.28-3.26-2.79-3.12-1.1-8.53,.62-16.25,5.2-45.47,1.43-90.77,2.46-135.49,2.99-38.31,.48-44.65,.71-71.08,.76l38.63-112.24c2.65-7.71,1.89-14.63-1.62-20.79-3.58-6.28-10.11-11.43-19.37-15.13-16.63-6.64-51.14-6.71-70.46-4.41-6.62,.78-12.48,1.9-17.41,3.47-4.91,1.59-7.99,3.47-8.72,5.66-.73,2.06-.04,4.06,1.37,6.16,1.34,1.99,2.23,5.39,2.78,9.77,.57,4.45-.29,11.04-3.37,20.01l-36.6,106.35c-17.52-.28-33.02-.62-46.86-.87-17.59-.46-31.03-.94-40.8-1.26-9.75-.32-14.54-.46-14.77-.46-1.55,.04-3.03,.14-4.43,.34l-10.7-.34Zm-2130.42,229.52c-10.35,17.12-18.88,35.17-25.51,54.07-5.14,15.24-8.29,29.59-9.48,43.08-3.02,4.31-6.15,8.69-9.43,13.14-8.64,11.68-18.34,22.72-28.71,33.11-10.59,10.4-21.8,18.76-33.96,25.35-9.31,5.06-19.07,8.3-29.23,9.54-5-.86-8.7-2.53-11.11-5.13-3.61-3.45-5.41-7.87-5.65-12.89-.45-5.06-.08-9.93,1.05-14.53,1.2-4.7,2.33-8.01,3.15-10.4l67.33-195.67c4.02-11.04,6.05-22.06,6.83-33.25,.56-11.16-1.63-21.43-6.27-30.87-4.9-9.29-13.5-16.84-25.8-22.54-12.3-5.66-29.27-8.65-51.13-8.79-2.37,0-4.71,.07-7.06,.18-2.62-.11-5.31-.18-8.1-.18-21.56,.14-42.55,4.4-63.27,12.41-20.6,8.21-40.68,19.41-60.21,33.41-11.56,8.31-22.81,17.28-33.81,26.92l81.23-236.07c2.68-7.71,1.9-14.63-1.59-20.79-3.59-6.27-10.09-11.41-19.38-15.13-16.7-6.68-51.09-6.68-70.44-4.42-6.62,.78-12.51,1.91-17.43,3.49-4.91,1.57-7.98,3.46-8.74,5.66-.7,2.05,0,4.06,1.38,6.12,1.35,2.01,2.24,5.41,2.8,9.79,.57,4.43-.3,11.04-3.37,20.01l-176.89,513.98c-3.95,11.5-3.28,20.33,1.47,26.35,4.75,5.98,11.46,10.07,20.32,12.28,8.97,2.03,18.02,3.13,27.07,2.99,2.12-.04,4.14-.14,6.09-.25,3.02,.21,6.04,.29,9.05,.25,12.58-.14,22.1-2.35,28.83-6.62,6.66-4.1,11.53-9.29,14.52-15.45,3.26-6.3,5.61-12.43,7.5-18.59l47.49-138c9.14-18.9,21.68-37.52,37.9-55.96,16.16-18.26,33.53-34.96,52.35-50.08,18.52-14.97,36.08-27.09,52.77-36.1,12.4-6.75,22.97-11.09,31.67-12.89,4.11,1.14,6.95,3.31,8.49,6.45,2.27,4.88,2.67,11.34,1.18,19.55-1.67,8.03-4.11,17.02-7.76,26.95l-66.04,191.87c-5.6,16.2-6.29,31.05-2.11,44.43,4.16,13.39,12.98,24.1,26.65,32.11,13.71,8.08,32.24,12.18,55.43,12.32,2.68,0,5.33-.07,7.97-.18,2.34,.11,4.74,.18,7.17,.18,22.66-.14,43.94-3.31,63.97-9.29,20.11-6.16,38.71-14.35,56.07-24.57,14.84-8.9,28.53-18.58,41.38-29.16,3.57,4.81,7.54,9.4,11.94,13.71,16.42,16.06,36.96,28.34,61.96,36.71,24.75,8.37,52.24,12.6,82.52,12.6l7.71-.07c2.45,.03,4.93,.07,7.43,.07,38.67-.14,73.48-4.42,104.25-12.32,30.85-8.01,57.97-18.55,81.75-31.65,21.75-12.07,40.65-25.06,56.92-39.09,1.78,4.74,3.77,9.29,5.97,13.74,29.15,58.75,96.6,84.59,175.06,82.81,80.48,1.89,174.93-26.85,252.11-80.29-2.49,7.9-5.18,16.59-7.97,25.96-6.23,21.11-17.52,63.55-40.98,130.2-25,70.96-67.68,145.9-150.42,125.54-2.97-.86-5.61-.89-7.8-.32-1.9,.5-3.86,2.71-5.14,6.62-1.45,4.59-.32,10.04,3.26,16.09,15.79,37.92,117.71,60.74,180.54,23.36,13.65-7.87,26.74-20.33,38.79-37.53,36.62-52.23,86.05-226.93,108.55-295.79,7.87-24.07,15.56-47.07,23.14-69.11,8.08-23.5,16.54-46.82,25.62-70,9.04-23.12,20.06-47.33,31.4-72.76,2.28-5.18,.7-9.99-2.54-14.35-3.19-4.31-7.62-8.28-13.8-11.5-19.33-10-97.45-10.23-108.14,20.85-.8,2.37-1.59,5.21-2.44,8.99-.82,3.61-1.64,7.41-2.58,11.34-.96,4.08-1.94,7.57-3.08,10.86-5.41,15.77-9.35,20.92-21.15,39.35-60.51,94.45-168.14,156.01-253.02,159.61-58.13-2.49-102.67-34.93-108.56-106.35-7.57-91.6,23.3-189.42,79.09-276.17,53.8-83.67,171.72-191.9,297.64-241.05,70.94-27.68,140.95-34.87,193.18-10.72,65.38,30.3-14.42,141.04-88.26,166.04-118.93,40.23-163.12,12.78-181.1,14.7-31.61,3.36-22.51,104.37,31.69,117.94,228.68,57.2,507.69-381.47,178.27-377.61-365.39,4.25-601.07,321.5-636.12,577.74-4.34,3.53-8.23,7.98-11.79,13.35-8.98,14.67-19.54,28.84-32.1,43.01-12.52,14.03-26.99,26.81-43.42,38.13-16.68,11.5-35.37,20.65-56.13,27.41-18.92,6.23-39.54,9.68-62.19,10.4-19.34-.64-35.27-3.24-47.91-7.87-14.24-5.2-24.95-12.28-32.23-21.11-7.49-8.83-12.26-18.62-14.64-29.48,34.45-7.08,65.94-17.02,94.53-29.9,28.8-12.93,54.28-27.74,76.27-44.43,22.2-16.7,40.45-34.05,55.05-52.33,14.66-18.27,24.99-36.23,31.06-53.87,6.57-19.06,7.48-35.76,2.95-49.94-4.51-14.35-14.3-25.38-29.32-33.41-14.83-7.87-34.7-11.96-59.22-12.11-2.44,0-4.89,.07-7.34,.16-2.55-.09-5.14-.16-7.8-.16-25.71,.14-52.13,5.48-79.61,15.9-27.49,10.39-54.04,25.03-79.63,43.95-25.56,18.89-48.35,41.12-68.5,66.49-2.56,3.26-5.06,6.6-7.46,9.95l-12.85,19.48Zm98.52,51.22c2.15-8.19,6.06-18.26,11.72-30.26,3.09-6.81,6.69-13.79,10.72-20.96l11.75-19.48c7.75-11.98,16.41-23.28,26.15-33.89,10.27-11.36,21.41-20.81,33.29-27.9,26.43-16.07,50.67-13.44,38.51,21.9-6.77,19.07-17.3,36.87-31.74,53.41-14.53,16.72-32.09,31.34-52.5,44.12-15.8,9.68-32.65,17.87-50.81,24.53,.25-1,.44-1.96,.64-2.95,.54-2.85,1.28-5.66,2.27-8.51Z"/></g><g><path class="cls-4" d="M511.36,18.68c86.51,0,172.29,14.06,255.19,38.62,72.4,21.45,140.88,54.42,203.34,96.84l6.4,4.34,1.85,11.36c14.48,89.24,24.04,179.4,23.86,269.89-.21,103.87-13.21,208.64-47.18,307.14-33.19,96.25-82,179.18-153.33,252.11-76.26,77.99-170.79,136.5-266.81,187.06-6.97,3.67-14.76,4.88-22,4.88-8.92,0-17.02-1.84-21.72-3.17-2.56-.72-4.99-1.74-7.33-3-94.33-50.51-188.93-108.61-264.15-185.46-71.46-73.03-120.38-156.04-153.62-252.43-33.98-98.51-46.97-203.27-47.18-307.14-.18-90.5,9.39-180.65,23.87-269.89l1.84-11.36,6.34-4.3c62.47-42.45,130.97-75.43,203.38-96.88,82.9-24.55,168.69-38.63,255.21-38.63h2.03m0-18.68h-2.03c-84.6,0-172.25,13.26-260.52,39.4-73.37,21.73-143.54,55.15-208.58,99.34l-6.34,4.3-6.65,4.52-1.29,7.94-1.84,11.36C7.72,267.9-.16,357.17,0,439.77c.23,115.77,16.45,221.14,48.2,313.2,35.12,101.84,86.78,186.69,157.93,259.4,82.01,83.8,186.67,144.95,268.68,188.86,3.67,1.96,7.28,3.44,11.06,4.51,6.23,1.77,15.94,3.87,26.81,3.87,11.52,0,21.85-2.36,30.71-7.03,81.74-43.05,186.46-103.61,271.46-190.53,70.98-72.58,122.54-157.33,157.63-259.09,31.74-92.03,47.96-197.4,48.2-313.19,.17-82.64-7.72-171.91-24.1-272.92l-1.85-11.37-1.29-7.94-6.65-4.52-6.4-4.34c-65.03-44.16-135.19-77.57-208.53-99.3C683.62,13.25,595.98,0,511.36,0h0Z"/><path class="cls-2" d="M116.28,729.62c-32.07-92.96-44.35-191.8-44.55-289.85-.17-82.26,8.09-164.33,20.71-245.55l.73-4.66,3.97-2.57c58.22-37.5,121.67-64.95,188.34-83.42,73.26-20.31,148.76-31.81,224.86-31.81s151.61,11.5,224.87,31.81c66.67,18.47,130.13,45.92,188.34,83.42l3.97,2.57,.72,4.66c12.63,81.23,20.88,163.29,20.71,245.56-.19,98.04-12.49,196.88-44.55,289.84-30.53,88.54-75.41,165.25-141.04,232.37-70.83,72.43-158.85,127.54-248.14,174.25l-4.89,2.56-4.88-2.56c-89.31-46.72-177.29-101.83-248.15-174.23-65.66-67.11-110.51-143.85-141.05-232.4"/><path class="cls-1" d="M641.52,510.04h-157.65v-47.33h206.2l.48,6.65c.33,4.42,.5,8.85,.5,13.28,0,99.8-80.9,180.71-180.71,180.71s-180.7-80.9-180.7-180.71,80.9-180.7,180.7-180.7c59.95,0,115.65,29.55,149.41,79.07l.64,.93-37.95,27.3c-24.72-37.72-66.66-60.6-112.1-60.6-74.01,0-134,59.99-134,134s59.99,134,134,134c63.76,0,118.41-44.94,131.18-106.59M510.34,212.22c149.35,0,270.42,121.06,270.42,270.41s-121.07,270.41-270.42,270.41-270.42-121.07-270.42-270.41S360.99,212.22,510.34,212.22Z"/><path class="cls-3" d="M510.13,1095.77c29.85-21.78,34.74-99.61,34.74-143.03,0-47.88,32.05-79.14,67.44-108.91v-53.61c-65.63,25.1-138.33,25.1-203.96,0v53.12c36.24,29.76,67.45,60.93,67.45,109.41,0,41.81,2.04,117.01,34.32,143.03"/></g></g></g></svg>