<?xml version="1.0" encoding="UTF-8"?><svg id="Layer_2" xmlns="http://www.w3.org/2000/svg" viewBox="0 0 4692.04 1233.75"><defs><style>.cls-1{fill:#fff;}.cls-2{fill:#253d51;}.cls-3{fill:#acc851;}</style></defs><g id="Capa_1"><g><path class="cls-3" d="M3752.6,360.44c4.2,11.42,5.71,24.19,4.37,38.8-1.51,13.94-5.71,26.37-12.26,37.79-28.72,48.38-115.56,55.93-137.23,0-4.37-11.42-5.88-23.85-4.7-37.79,1.68-14.61,5.88-27.38,12.6-38.8,28.22-47.37,116.23-54.25,137.23,0Z"/><path class="cls-1" d="M4219.89,796.32l87.68-255.15c-29.23-.17-51.57-.5-67.02-.84-15.45-.67-23.18-1.01-23.52-1.01-8.4-.17-15.29-2.35-20.49-6.72-5.21-4.2-8.9-9.41-10.75-15.79-2.02-6.21-2.52-12.43-1.18-18.64,1.18-6.38,3.86-11.59,8.4-15.79,4.37-4.2,10.41-6.55,18.14-6.72l10.75,.34c1.51-.17,3.02-.17,4.54-.34,.17,0,5.04,.17,14.78,.5,9.91,.34,23.35,.84,40.98,1.34,13.94,.17,29.39,.5,47.03,.84l36.79-106.83c3.02-8.9,3.86-15.62,3.36-19.99-.5-4.37-1.51-7.89-2.86-9.91-1.34-2.02-2.02-4.03-1.34-6.21,.84-2.18,3.86-4.03,8.73-5.54,5.04-1.68,10.92-2.69,17.47-3.53,19.48-2.35,54.09-2.18,70.88,4.37,9.24,3.7,15.79,8.9,19.32,15.29,3.53,6.21,4.37,13.1,1.68,20.83l-38.8,112.71c26.54,0,32.92-.34,71.39-.84,44.85-.5,90.37-1.51,136.05-3.02,7.73-4.54,13.1-6.21,16.29-5.21,1.51,.5,2.52,1.51,3.19,2.86,5.54-2.69,9.57-3.7,12.09-2.86,3.02,1.18,4.37,4.03,3.86,8.9-.34,4.7-2.02,10.41-5.38,17.13-3.19,6.55-7.05,13.1-12.09,19.65-4.87,6.38-10.41,11.76-16.29,16.29-5.88,4.2-11.93,6.72-17.64,6.89-35.27,.84-68.03,1.01-97.59,1.34-29.73,.17-15.96,.5-41.82,.5-9.91,.17-19.82,.17-29.39,.17h-7.05l-36.79-.17-103.64,300.83c-4.87,15.12-1.85,15.29,3.7,22.34,4.37,5.54,11.42,8.9,21.33,10.08,10.58-1.18,20.83-4.37,30.57-9.74,12.43-5.71,80.46-65.51,99.61-93.39,16.46-24.02,34.6-26.88,59.29-10.58,5.71,4.03,10.08,8.9,12.6,14.95,2.52,5.88,3.02,11.93,1.01,17.97-.17,.5-.34,1.34-1.01,2.18-.34,1.18-1.34,2.69-2.52,4.54-8.73,12.6-19.32,25.7-31.07,39.3-11.76,13.77-25.03,26.88-39.64,39.98-14.78,12.77-30.91,24.36-48.38,34.77-17.64,10.25-36.28,18.48-56.44,24.69-43,12.77-143.95,21.67-167.47-28.39-1.85,1.18-3.86,2.52-6.05,3.7-17.64,10.25-36.28,18.48-56.44,24.69-33.93,10.08-102.8,15.96-135.22-3.02-13.77-8.06-22.68-18.81-26.88-32.25-4.2-13.44-3.36-28.39,2.18-44.68l66.35-192.66c3.53-9.91,6.05-18.98,7.73-27.04,1.51-8.23,1.01-14.78-1.18-19.65-1.51-3.02-4.37-5.21-8.57-6.38-8.73,1.85-19.32,6.05-31.75,12.93-16.8,9.07-34.43,21.16-53.08,36.28-18.81,15.12-36.28,31.91-52.41,50.22-16.29,18.48-28.89,37.12-38.13,56.1l-47.7,138.57c-1.85,6.21-4.2,12.43-7.56,18.64-2.86,6.21-7.89,11.42-14.45,15.62-19.48,12.26-81.63,14.61-95.41-2.86-3.19-3.86-.67-14.78-.34-21-15.62,8.57-32.25,15.62-50.05,21.16-33.93,10.08-102.63,15.96-135.05-3.02-12.6-7.39-21.16-17.13-25.7-28.89-3.7,2.35-7.56,4.87-11.59,7.22-17.47,10.25-36.11,18.48-56.27,24.69-20.16,6.05-41.49,9.07-64.16,9.24-3.02,.17-6.05,0-9.07-.17-2.02,.17-4.2,.17-6.21,.17-15.96,.17-30.91-1.51-45.69-5.21-14.78-3.53-27.21-9.41-37.79-17.47-10.41-8.23-17.47-19.32-20.83-33.26-3.19-14.11-1.51-31.41,5.54-52.24,10.58-30.23,27.38-62.65,50.56-97.09,23.35-34.43,52.41-72.06,87.51-112.71h-99.61c-3.53,9.57-8.4,21.33-14.61,35.27-6.05,13.94-13.1,29.06-21.33,45.35-8.06,16.29-16.96,32.59-26.71,48.88-9.57,16.13-19.82,31.24-30.57,45.18-14.95,18.48-46.86,24.19-67.69,13.77-8.06-4.03-13.44-9.57-16.13-16.96-3.02-7.39-1.68-15.12,3.86-23.35,6.72-9.74,13.94-21.33,21.16-34.94,7.39-13.77,14.45-28.39,21.5-43.67,6.89-15.45,13.44-30.74,19.48-45.69,5.88-14.95,11.25-28.55,15.79-40.82-14.45-6.72-25.2-15.12-32.25-25.03-6.72-10.08-8.23-22-3.7-35.78,3.19-8.9,9.07-16.63,17.47-23.01,26.54-20.66,76.76-26.37,109.68-16.13,9.91,2.86,18.14,8.06,24.69,15.45,6.21,7.39,9.74,17.47,10.41,30.4,13.77,1.18,25.2,2.02,33.59,2.69,8.73,.34,15.62,.67,20.83,.84,3.86,.17,7.56,.17,10.75,.17h72.23c4.2,.17,9.24,2.02,15.62,5.21,6.05,3.36,12.09,7.89,17.64,13.27,5.71,5.38,9.91,11.09,12.43,17.13,2.69,6.21,2.52,12.09-.5,17.64-1.01,2.35-5.04,8.4-12.43,17.97-7.22,9.57-16.29,21.67-27.21,36.45-11.09,14.61-22.51,31.07-34.6,49.21-12.26,18.14-23.52,36.95-34.27,56.61-10.75,19.48-19.32,38.8-26.04,57.95-3.19,9.07-4.03,17.47-3.02,25.2,1.34,7.73,4.87,13.94,11.25,18.64,4.7,3.86,11.42,6.21,19.82,7.05,12.09-1.18,23.52-4.37,34.1-9.74,13.1-6.55,25.03-14.95,35.95-25.36,10.75-10.58,20.49-21.67,29.39-33.26,8.73-11.93,16.29-23.18,22.84-33.76,3.19-4.87,6.38-9.24,9.74-12.77l56.61-164.61c2.02-5.88,3.36-10.92,3.7-14.45,.34-3.7,.5-6.89,.5-9.24s.34-4.7,1.01-6.72c1.85-4.87,6.72-8.73,14.45-11.76,17.97-7.05,59.63-5.38,76.59,1.34,9.24,3.7,15.96,8.73,19.48,15.12,3.53,6.21,4.2,13.1,1.51,20.83l-82.98,241.04c-16.13,47.2,45.02,38.63,76.09,8.23,10.41-10.58,20.16-21.67,28.89-33.26,8.73-11.93,16.46-23.18,23.01-33.76,3.19-4.87,6.38-9.24,9.74-12.77l56.61-164.61c2.02-5.88,3.36-10.92,3.7-14.45,.34-3.7,.5-6.89,.5-9.24-.17-2.35,.34-4.7,1.01-6.72,8.73-22.51,73.74-17.13,91.04-10.41,9.24,3.7,15.79,8.73,19.48,15.12,3.53,6.21,4.2,13.1,1.51,20.83l-7.39,21.84c10.92-9.57,22.34-18.64,33.93-27.04,19.48-14.11,39.64-25.2,60.3-33.59,21-7.89,41.99-12.26,63.66-12.43,2.69,0,5.54,.17,8.06,.17,2.35,0,4.7-.17,7.05-.17,22,.17,38.97,3.19,51.4,8.9,12.43,5.71,21,13.27,25.87,22.68,4.7,9.41,6.89,19.65,6.38,30.91-.84,11.25-2.86,22.34-6.89,33.43l-67.69,196.36c-.67,2.52-1.85,5.71-3.02,10.58-12.77,46.86,62.15,13.94,83.82-7.22,10.41-10.41,15.45-16.8,24.19-28.39,5.21-7.22,10.08-14.11,14.61-20.66Z"/><path class="cls-1" d="M2182.93,727.29c-5.71,11.93-9.57,22.17-11.76,30.4-1.01,2.86-1.68,5.54-2.18,8.4-.34,1.01-.5,2.02-.67,3.02,18.14-6.72,35.11-14.95,50.89-24.69,20.49-12.77,38.13-27.38,52.74-44.18,14.61-16.63,25.03-34.6,31.91-53.75,12.26-35.44-12.09-37.96-38.63-21.84-11.93,7.05-23.18,16.46-33.43,27.88-9.74,10.75-18.48,22-26.37,34.1l-11.76,19.48c-4.03,7.22-7.56,14.28-10.75,21.16Zm698.25,482.74c-62.99,37.63-165.45,14.61-181.24-23.35-3.53-6.05-4.7-11.59-3.19-16.13,1.18-4.03,3.19-6.21,5.04-6.72,2.18-.5,4.87-.5,7.89,.34,82.98,20.49,125.98-54.76,151-126.14,23.52-66.85,34.94-109.52,41.15-130.68,2.86-9.41,5.54-18.14,8.06-26.04-77.6,53.75-172.34,82.47-253.13,80.63-78.78,1.85-146.64-24.19-175.86-83.14-2.18-4.54-4.2-9.07-5.88-13.77-16.46,14.11-35.44,27.04-57.28,39.14-23.85,13.27-51.06,23.85-81.97,31.91-30.91,7.89-65.84,12.09-104.64,12.26h-15.29c-30.4,0-57.95-4.2-82.81-12.6-25.2-8.4-45.69-20.66-62.32-36.79-4.37-4.37-8.4-9.07-11.93-13.77-12.93,10.58-26.71,20.32-41.49,29.23-17.47,10.25-36.11,18.48-56.27,24.69-20.16,6.05-41.49,9.07-64.33,9.24-2.35,0-4.87,0-7.22-.17-2.52,.17-5.21,.17-7.89,.17-23.35-.17-41.99-4.2-55.77-12.26-13.61-8.06-22.51-18.81-26.71-32.25-4.2-13.44-3.53-28.39,2.18-44.68l66.18-192.66c3.7-9.91,6.21-18.98,7.89-27.04,1.51-8.23,1.01-14.78-1.18-19.65-1.51-3.02-4.37-5.21-8.57-6.38-8.73,1.85-19.32,6.05-31.75,12.93-16.8,9.07-34.43,21.16-53.08,36.28-18.81,15.12-36.28,31.91-52.57,50.22-16.29,18.48-28.72,37.12-37.96,56.1l-47.7,138.57c-1.85,6.21-4.2,12.43-7.56,18.64-3.02,6.21-7.89,11.42-14.61,15.62-6.72,4.2-16.29,6.38-28.89,6.55-3.02,.17-6.05,0-9.07-.17-2.02,0-4.03,.17-6.05,.17-9.07,.17-18.31-.84-27.21-3.02-8.9-2.18-15.62-6.21-20.49-12.26-4.7-6.05-5.38-14.95-1.34-26.37l177.54-516.17c3.02-8.9,3.86-15.62,3.36-19.99-.5-4.37-1.51-7.89-2.86-9.91-1.34-2.02-2.02-4.03-1.34-6.05,.84-2.35,3.86-4.2,8.73-5.71,5.04-1.68,10.92-2.69,17.64-3.53,19.32-2.35,53.92-2.35,70.71,4.37,9.24,3.86,15.79,8.9,19.32,15.29,3.53,6.21,4.37,13.1,1.68,20.83l-81.63,237c11.09-9.57,22.34-18.64,34.1-27.04,19.48-14.11,39.64-25.2,60.3-33.59,20.83-7.89,41.99-12.26,63.66-12.43,2.69,0,5.38,.17,8.06,.17,2.35,0,4.7-.17,7.05-.17,22,.17,38.97,3.19,51.4,8.9,12.26,5.71,21,13.27,25.87,22.68,4.7,9.41,6.89,19.65,6.38,30.91-.84,11.25-2.86,22.34-6.89,33.43l-67.69,196.36c-.84,2.52-1.85,5.71-3.19,10.58-1.01,4.54-1.51,9.41-1.01,14.45,.34,5.04,2.02,9.57,5.71,12.93,2.35,2.69,6.05,4.37,11.09,5.21,10.25-1.18,19.99-4.54,29.39-9.57,12.26-6.55,23.52-14.95,34.1-25.36,10.41-10.58,20.16-21.67,28.89-33.26,3.19-4.54,6.38-8.9,9.41-13.27,1.18-13.61,4.37-27.88,9.57-43.17,6.55-18.98,15.12-37.12,25.53-54.42l12.93-19.48c2.35-3.36,4.87-6.72,7.56-10.08,20.16-25.36,43-47.7,68.7-66.68,25.7-18.98,52.41-33.76,79.95-44.18s54.09-15.79,79.95-15.96c2.69,0,5.21,.17,7.89,.17,2.35,0,4.87-.17,7.22-.17,24.69,.17,44.68,4.37,59.46,12.26,15.12,8.06,25.03,19.15,29.56,33.43,4.54,14.28,3.53,31.07-3.02,50.22-6.05,17.64-16.46,35.78-31.24,54.09-14.61,18.31-32.92,35.78-55.26,52.57-22,16.63-47.54,31.58-76.59,44.51-28.55,12.93-60.3,23.01-94.9,30.07,2.52,10.92,7.22,20.66,14.78,29.56,7.22,8.9,17.97,15.96,32.42,21.16,12.6,4.7,28.55,7.39,48.04,7.89,22.68-.67,43.5-4.03,62.48-10.41,20.83-6.72,39.47-15.96,56.27-27.55,16.46-11.25,31.07-24.19,43.67-38.3,12.6-14.11,23.18-28.39,32.25-43.17,3.53-5.38,7.39-9.74,11.76-13.27,35.27-257.33,271.77-575.8,638.62-580.17,330.73-3.86,50.73,436.55-178.89,379.11-54.42-13.61-63.66-115.06-31.91-118.42,18.14-1.85,62.48,25.7,181.91-14.61,74.07-25.2,154.2-136.39,88.52-166.79-52.41-24.19-122.62-16.96-193.84,10.75-126.48,49.38-244.9,158.06-298.82,242.04-56.1,87.01-87.01,185.27-79.45,277.32,5.88,71.72,50.56,104.14,109.01,106.66,85.16-3.53,193.16-65.34,253.97-160.24,11.93-18.48,15.79-23.68,21.33-39.47,1.01-3.36,2.02-6.72,3.02-10.92,1.01-3.86,1.68-7.73,2.52-11.42,.84-3.7,1.68-6.55,2.52-8.9,10.75-31.24,89.19-31.07,108.51-21,6.21,3.19,10.75,7.22,13.94,11.59,3.19,4.37,4.87,9.24,2.52,14.45-11.42,25.53-22.51,49.72-31.58,73.07-9.07,23.18-17.47,46.53-25.7,70.21-7.56,22.17-15.29,45.18-23.18,69.37-22.68,69.2-72.23,244.56-109.01,296.97-12.09,17.3-25.2,29.73-38.97,37.63Z"/><path class="cls-1" d="M2033.44,210.11c-2.69,7.89-7.39,15.62-13.61,23.18-6.38,7.73-14.28,14.11-23.85,19.32-9.41,5.04-19.82,7.73-31.41,7.89-2.69,0-6.55-.17-11.59-.17-1.18,0-2.35,.17-3.53,.17-4.87,0-13.44-.17-25.87-.34-12.26-.17-26.71-.5-43.34-.84s-192.32-.67-210.13-.84c-12.09-.34-23.68-.5-34.94-.67l-248.93,723.61c-9.57,27.55-20.66,50.05-32.75,67.36-12.09,17.13-25.2,29.73-38.97,37.63-13.61,7.89-28.05,11.93-42.5,11.76-2.02,0-4.03-.17-6.21-.5-3.02,.34-6.05,.5-9.07,.5-8.23-.17-16.8-2.18-25.2-6.05-8.57-4.03-16.13-8.9-22.84-14.78-6.89-5.88-11.93-12.09-15.62-18.14-3.53-6.05-4.7-11.59-3.19-16.13,1.18-4.03,3.19-6.21,5.21-6.72,2.18-.5,4.7-.5,7.73,.34,13.94,4.03,33.43-3.53,43-14.78,9.41-11.25,18.14-28.89,26.37-52.91l243.72-708.49c-36.62,0-110.86-1.01-170.82,1.68-135.72,6.05-169.31,70.38-62.82,185.94,15.62,16.96,35.44,22.84,35.61,23.18,2.18,2.52,2.35,6.21,.5,11.09-3.02,8.4-9.41,16.96-18.48,25.53s-19.48,15.79-31.07,21.5c-14.78,7.22-40.98,12.93-57.95,8.06-61.48-17.8-170.32-160.91-85.5-261.19,75.25-88.86,212.65-96.58,359.96-91.54,17.13,.5,208.62,.34,226.76,.5,18.48,0,194.51,.34,211.47,.5s31.41,.34,43.84,.5l12.6,.17h.5c6.72-.17,12.09-.84,16.46-1.85,7.73-2.02,33.59-9.74,37.46-.84,1.34,3.19,1.68,7.22,1.51,12.09,0,4.7-.84,9.41-2.52,14.28Z"/><path class="cls-1" d="M967.84,156.36c14.45,89.53,24.19,180.06,24.02,270.93-.34,104.31-13.27,209.46-47.54,308.39-33.26,96.58-82.3,179.89-153.86,253.13-75.92,77.6-169.65,136.56-265.56,186.45-.67,.67-1.34,1.18-2.18,1.68-23.01,12.77-48.21,0-48.21,0-95.74-51.06-191.99-109.85-268.41-187.79-71.72-73.4-120.77-156.72-154.2-253.47C17.81,636.75,4.71,531.6,4.54,427.3c-.17-90.87,9.41-181.41,24.02-270.93l1.85-11.42,9.41-6.55C106.83,93.04,180.4,59.95,258.17,38.28,336.11,16.78,416.23,4.52,497.19,4.52h2.02c80.79,0,161.08,12.26,238.85,33.76,77.94,21.67,151.51,54.76,218.36,100.11l9.57,6.55,1.85,11.42Zm-29.39,270.93c.17-82.64-8.06-164.95-20.66-246.58l-.84-4.7-3.86-2.52c-58.45-37.63-122.28-65.17-189.13-83.82-73.57-20.32-149.32-31.91-225.75-31.91s-152.18,11.59-225.75,31.91c-67.02,18.64-130.68,46.19-189.13,83.82l-4.03,2.52-.67,4.7c-12.77,81.63-21,163.94-20.83,246.58,.17,98.43,12.6,197.7,44.68,291.09,30.74,88.86,75.75,165.95,141.6,233.31,71.22,72.56,159.57,127.99,249.27,174.86l4.87,2.52,4.87-2.52c89.7-46.86,178.05-102.29,249.1-174.86,65.84-67.52,111.03-144.45,141.6-233.31,32.25-93.39,44.51-192.66,44.68-291.09Z"/><path class="cls-1" d="M498.2,198.86c149.83,0,271.44,121.44,271.44,271.44s-121.61,271.61-271.44,271.61-271.61-121.61-271.61-271.61S348.2,198.86,498.2,198.86Zm181.41,271.44c0-4.37-.17-8.9-.5-13.27l-.5-6.72h-207.11v47.54h158.39c-12.93,61.98-67.69,107-131.69,107-74.41,0-134.54-60.13-134.54-134.54s60.13-134.54,134.54-134.54c45.52,0,87.68,23.01,112.54,60.8l38.13-27.38-.67-.84c-33.93-49.72-89.86-79.45-150-79.45-100.28,0-181.41,81.3-181.41,181.41s81.13,181.41,181.41,181.41,181.41-81.13,181.41-181.41Z"/><path class="cls-3" d="M600.49,779.19v53.75c-35.44,29.9-67.69,61.31-67.69,109.35,0,43.67-4.87,121.78-34.94,143.61-32.42-26.04-34.43-101.62-34.43-143.61,0-48.71-31.24-79.95-67.69-109.85v-53.25c65.84,25.2,138.91,25.2,204.75,0Z"/><path class="cls-2" d="M752.17,951.7c-71.05,72.56-159.4,127.99-249.1,174.86l-4.87,2.52-4.87-2.52c-89.7-46.86-178.05-102.29-249.27-174.86-65.84-67.36-110.86-144.45-141.6-233.31-32.08-93.39-44.51-192.66-44.68-291.09-.17-82.64,8.06-164.95,20.83-246.58l.67-4.7,4.03-2.52c58.45-37.63,122.11-65.17,189.13-83.82,73.57-20.32,149.32-31.91,225.75-31.91s152.18,11.59,225.75,31.91c66.85,18.64,130.68,46.19,189.13,83.82l3.86,2.52,.84,4.7c12.6,81.63,20.83,163.94,20.66,246.58-.17,98.43-12.43,197.7-44.68,291.09-30.57,88.86-75.75,165.79-141.6,233.31Zm-288.74-9.41c0,41.99,2.02,117.58,34.43,143.61,30.07-21.84,34.94-99.94,34.94-143.61,0-48.04,32.25-79.45,67.69-109.35v-53.75c-65.84,25.2-138.91,25.2-204.75,0v53.25c36.45,29.9,67.69,61.14,67.69,109.85Zm306.21-471.99c0-150-121.61-271.44-271.44-271.44S226.59,320.3,226.59,470.3s121.61,271.61,271.61,271.61,271.44-121.61,271.44-271.61Z"/><path class="cls-2" d="M471.49,450.31h207.11l.5,6.72c.34,4.37,.5,8.9,.5,13.27,0,100.28-81.3,181.41-181.41,181.41s-181.41-81.13-181.41-181.41,81.13-181.41,181.41-181.41c60.13,0,116.07,29.73,150,79.45l.67,.84-38.13,27.38c-24.86-37.79-67.02-60.8-112.54-60.8-74.41,0-134.54,60.3-134.54,134.54s60.13,134.54,134.54,134.54c64,0,118.75-45.02,131.69-107h-158.39v-47.54Z"/></g></g></svg>